<?xml version="1.0" encoding="UTF-8"?>
<svg xmlns="http://www.w3.org/2000/svg" xmlns:xlink="http://www.w3.org/1999/xlink" width="369px" height="266px" viewBox="0 0 370 266" version="1.1">
<g id="surface1">
<path style=" stroke:none;fill-rule:nonzero;fill:rgb(0%,0%,0%);fill-opacity:1;" d="M 106.328125 21.859375 C 104.640625 23.859375 97.570312 32.632812 90.65625 41.5625 C 83.742188 50.492188 71.757812 65.882812 64.074219 75.890625 C 56.238281 85.894531 49.015625 95.441406 47.941406 96.980469 C 46.097656 99.441406 47.171875 101.136719 57.160156 112.371094 C 63.304688 119.300781 71.140625 128.226562 74.523438 132.230469 C 77.902344 136.386719 89.273438 149.316406 99.875 161.171875 C 110.476562 173.023438 125.382812 189.800781 132.910156 198.578125 C 140.59375 207.351562 152.578125 221.203125 159.800781 229.363281 C 167.023438 237.367188 175.78125 247.527344 179.316406 251.683594 C 182.847656 255.839844 186.074219 258.917969 186.382812 258.609375 C 186.691406 258.148438 197.292969 246.140625 209.890625 231.828125 C 222.492188 217.511719 234.785156 203.347656 237.242188 200.269531 C 239.855469 197.191406 245.695312 190.570312 250.304688 185.492188 C 255.066406 180.257812 265.667969 168.40625 273.964844 158.859375 C 282.261719 149.316406 297.320312 132.078125 307.460938 120.683594 C 317.605469 109.140625 325.441406 99.132812 324.824219 98.363281 C 323.136719 95.59375 268.433594 25.246094 265.359375 21.859375 L 262.289062 18.472656 L 109.554688 18.472656 Z M 273.660156 60.035156 C 284.105469 73.425781 292.710938 85.742188 292.710938 87.28125 C 292.710938 89.898438 290.40625 90.050781 261.671875 90.515625 C 234.015625 90.820312 230.328125 91.128906 229.097656 93.59375 C 228.332031 94.976562 224.949219 104.523438 221.570312 114.683594 C 199.136719 181.183594 188.535156 211.816406 187.613281 212.738281 C 185.152344 215.507812 182.234375 208.890625 169.328125 170.867188 C 161.644531 148.394531 152.425781 121.453125 148.738281 110.832031 L 142.128906 91.589844 L 110.632812 90.820312 C 84.050781 90.207031 79.132812 89.746094 78.671875 87.742188 C 78.210938 85.433594 111.398438 41.253906 116.46875 37.253906 C 118.3125 35.867188 134.753906 35.40625 186.691406 35.40625 L 254.605469 35.40625 Z M 130.453125 110.679688 C 131.375 112.21875 138.289062 132.078125 145.972656 154.703125 C 156.421875 185.953125 159.339844 196.421875 157.957031 197.34375 C 155.652344 198.730469 150.890625 193.804688 123.84375 162.710938 C 113.859375 151.164062 99.875 135.15625 92.808594 127.304688 C 85.738281 119.609375 79.898438 111.910156 79.898438 110.371094 C 79.898438 108.0625 82.050781 107.753906 104.484375 107.753906 C 126.765625 107.753906 129.070312 108.0625 130.453125 110.679688 Z M 291.175781 110.988281 C 290.867188 112.679688 282.878906 122.839844 273.351562 133.617188 C 263.976562 144.390625 250.304688 160.09375 242.929688 168.558594 C 220.339844 194.574219 215.421875 199.5 213.578125 197.652344 C 212.195312 196.265625 223.875 158.246094 237.703125 119.300781 C 242.160156 107.140625 240.316406 107.753906 267.359375 107.753906 C 291.175781 107.753906 291.789062 107.753906 291.175781 110.988281 Z M 291.175781 110.988281 "/>
</g>
</svg>
